<mxfile host="Electron" agent="Mozilla/5.0 (Windows NT 10.0; Win64; x64) AppleWebKit/537.36 (KHTML, like Gecko) draw.io/27.0.9 Chrome/134.0.6998.205 Electron/35.4.0 Safari/537.36" version="27.0.9">
  <diagram name="Page-1" id="-cofZe38YRv7LZd6xlC1">
    <mxGraphModel dx="1163" dy="769" grid="1" gridSize="10" guides="1" tooltips="1" connect="1" arrows="1" fold="1" page="1" pageScale="1" pageWidth="1000" pageHeight="700" math="0" shadow="0">
      <root>
        <mxCell id="0" />
        <mxCell id="1" parent="0" />
        <mxCell id="u-cAiTU_7cCfLOp1U_Qq-1" value="&lt;b&gt;SALES DATA MART (Star Schema)&lt;/b&gt;" style="text;html=1;align=center;verticalAlign=middle;whiteSpace=wrap;rounded=0;fontSize=16;" vertex="1" parent="1">
          <mxGeometry x="20" y="20" width="270" height="30" as="geometry" />
        </mxCell>
        <mxCell id="u-cAiTU_7cCfLOp1U_Qq-6" value="&lt;font style=&quot;font-size: 13px;&quot;&gt;gold.dimension_customers&lt;/font&gt;" style="shape=table;startSize=40;container=1;collapsible=1;childLayout=tableLayout;fixedRows=1;rowLines=0;fontStyle=1;align=center;resizeLast=1;html=1;rounded=1;fillColor=#fff2cc;strokeColor=#d6b656;fontSize=16;" vertex="1" parent="1">
          <mxGeometry x="40" y="80" width="180" height="490" as="geometry" />
        </mxCell>
        <mxCell id="u-cAiTU_7cCfLOp1U_Qq-7" value="" style="shape=tableRow;horizontal=0;startSize=0;swimlaneHead=0;swimlaneBody=0;fillColor=none;collapsible=0;dropTarget=0;points=[[0,0.5],[1,0.5]];portConstraint=eastwest;top=0;left=0;right=0;bottom=1;fontSize=16;" vertex="1" parent="u-cAiTU_7cCfLOp1U_Qq-6">
          <mxGeometry y="40" width="180" height="45" as="geometry" />
        </mxCell>
        <mxCell id="u-cAiTU_7cCfLOp1U_Qq-8" value="PK" style="shape=partialRectangle;connectable=0;fillColor=none;top=0;left=0;bottom=0;right=0;fontStyle=1;overflow=hidden;whiteSpace=wrap;html=1;fontSize=16;" vertex="1" parent="u-cAiTU_7cCfLOp1U_Qq-7">
          <mxGeometry width="30" height="45" as="geometry">
            <mxRectangle width="30" height="45" as="alternateBounds" />
          </mxGeometry>
        </mxCell>
        <mxCell id="u-cAiTU_7cCfLOp1U_Qq-9" value="&lt;font style=&quot;color: light-dark(rgb(39, 38, 38), rgb(237, 237, 237)); background-color: rgb(204, 204, 204);&quot;&gt;customer_key&lt;/font&gt;" style="shape=partialRectangle;connectable=0;fillColor=none;top=0;left=0;bottom=0;right=0;align=left;spacingLeft=6;fontStyle=5;overflow=hidden;whiteSpace=wrap;html=1;fontSize=16;" vertex="1" parent="u-cAiTU_7cCfLOp1U_Qq-7">
          <mxGeometry x="30" width="150" height="45" as="geometry">
            <mxRectangle width="150" height="45" as="alternateBounds" />
          </mxGeometry>
        </mxCell>
        <mxCell id="u-cAiTU_7cCfLOp1U_Qq-10" value="" style="shape=tableRow;horizontal=0;startSize=0;swimlaneHead=0;swimlaneBody=0;fillColor=none;collapsible=0;dropTarget=0;points=[[0,0.5],[1,0.5]];portConstraint=eastwest;top=0;left=0;right=0;bottom=0;fontSize=16;" vertex="1" parent="u-cAiTU_7cCfLOp1U_Qq-6">
          <mxGeometry y="85" width="180" height="45" as="geometry" />
        </mxCell>
        <mxCell id="u-cAiTU_7cCfLOp1U_Qq-11" value="" style="shape=partialRectangle;connectable=0;fillColor=none;top=0;left=0;bottom=0;right=0;editable=1;overflow=hidden;whiteSpace=wrap;html=1;fontSize=16;" vertex="1" parent="u-cAiTU_7cCfLOp1U_Qq-10">
          <mxGeometry width="30" height="45" as="geometry">
            <mxRectangle width="30" height="45" as="alternateBounds" />
          </mxGeometry>
        </mxCell>
        <mxCell id="u-cAiTU_7cCfLOp1U_Qq-12" value="customer_id" style="shape=partialRectangle;connectable=0;fillColor=none;top=0;left=0;bottom=0;right=0;align=left;spacingLeft=6;overflow=hidden;whiteSpace=wrap;html=1;fontSize=16;" vertex="1" parent="u-cAiTU_7cCfLOp1U_Qq-10">
          <mxGeometry x="30" width="150" height="45" as="geometry">
            <mxRectangle width="150" height="45" as="alternateBounds" />
          </mxGeometry>
        </mxCell>
        <mxCell id="u-cAiTU_7cCfLOp1U_Qq-13" value="" style="shape=tableRow;horizontal=0;startSize=0;swimlaneHead=0;swimlaneBody=0;fillColor=none;collapsible=0;dropTarget=0;points=[[0,0.5],[1,0.5]];portConstraint=eastwest;top=0;left=0;right=0;bottom=0;fontSize=16;" vertex="1" parent="u-cAiTU_7cCfLOp1U_Qq-6">
          <mxGeometry y="130" width="180" height="45" as="geometry" />
        </mxCell>
        <mxCell id="u-cAiTU_7cCfLOp1U_Qq-14" value="" style="shape=partialRectangle;connectable=0;fillColor=none;top=0;left=0;bottom=0;right=0;editable=1;overflow=hidden;whiteSpace=wrap;html=1;fontSize=16;" vertex="1" parent="u-cAiTU_7cCfLOp1U_Qq-13">
          <mxGeometry width="30" height="45" as="geometry">
            <mxRectangle width="30" height="45" as="alternateBounds" />
          </mxGeometry>
        </mxCell>
        <mxCell id="u-cAiTU_7cCfLOp1U_Qq-15" value="customer_number" style="shape=partialRectangle;connectable=0;fillColor=none;top=0;left=0;bottom=0;right=0;align=left;spacingLeft=6;overflow=hidden;whiteSpace=wrap;html=1;fontSize=16;" vertex="1" parent="u-cAiTU_7cCfLOp1U_Qq-13">
          <mxGeometry x="30" width="150" height="45" as="geometry">
            <mxRectangle width="150" height="45" as="alternateBounds" />
          </mxGeometry>
        </mxCell>
        <mxCell id="u-cAiTU_7cCfLOp1U_Qq-16" value="" style="shape=tableRow;horizontal=0;startSize=0;swimlaneHead=0;swimlaneBody=0;fillColor=none;collapsible=0;dropTarget=0;points=[[0,0.5],[1,0.5]];portConstraint=eastwest;top=0;left=0;right=0;bottom=0;fontSize=16;" vertex="1" parent="u-cAiTU_7cCfLOp1U_Qq-6">
          <mxGeometry y="175" width="180" height="45" as="geometry" />
        </mxCell>
        <mxCell id="u-cAiTU_7cCfLOp1U_Qq-17" value="" style="shape=partialRectangle;connectable=0;fillColor=none;top=0;left=0;bottom=0;right=0;editable=1;overflow=hidden;whiteSpace=wrap;html=1;fontSize=16;" vertex="1" parent="u-cAiTU_7cCfLOp1U_Qq-16">
          <mxGeometry width="30" height="45" as="geometry">
            <mxRectangle width="30" height="45" as="alternateBounds" />
          </mxGeometry>
        </mxCell>
        <mxCell id="u-cAiTU_7cCfLOp1U_Qq-18" value="first_name" style="shape=partialRectangle;connectable=0;fillColor=none;top=0;left=0;bottom=0;right=0;align=left;spacingLeft=6;overflow=hidden;whiteSpace=wrap;html=1;fontSize=16;" vertex="1" parent="u-cAiTU_7cCfLOp1U_Qq-16">
          <mxGeometry x="30" width="150" height="45" as="geometry">
            <mxRectangle width="150" height="45" as="alternateBounds" />
          </mxGeometry>
        </mxCell>
        <mxCell id="u-cAiTU_7cCfLOp1U_Qq-19" value="" style="shape=tableRow;horizontal=0;startSize=0;swimlaneHead=0;swimlaneBody=0;fillColor=none;collapsible=0;dropTarget=0;points=[[0,0.5],[1,0.5]];portConstraint=eastwest;top=0;left=0;right=0;bottom=0;fontSize=16;" vertex="1" parent="u-cAiTU_7cCfLOp1U_Qq-6">
          <mxGeometry y="220" width="180" height="45" as="geometry" />
        </mxCell>
        <mxCell id="u-cAiTU_7cCfLOp1U_Qq-20" value="" style="shape=partialRectangle;connectable=0;fillColor=none;top=0;left=0;bottom=0;right=0;editable=1;overflow=hidden;whiteSpace=wrap;html=1;fontSize=16;" vertex="1" parent="u-cAiTU_7cCfLOp1U_Qq-19">
          <mxGeometry width="30" height="45" as="geometry">
            <mxRectangle width="30" height="45" as="alternateBounds" />
          </mxGeometry>
        </mxCell>
        <mxCell id="u-cAiTU_7cCfLOp1U_Qq-21" value="last_name" style="shape=partialRectangle;connectable=0;fillColor=none;top=0;left=0;bottom=0;right=0;align=left;spacingLeft=6;overflow=hidden;whiteSpace=wrap;html=1;fontSize=16;" vertex="1" parent="u-cAiTU_7cCfLOp1U_Qq-19">
          <mxGeometry x="30" width="150" height="45" as="geometry">
            <mxRectangle width="150" height="45" as="alternateBounds" />
          </mxGeometry>
        </mxCell>
        <mxCell id="u-cAiTU_7cCfLOp1U_Qq-22" value="" style="shape=tableRow;horizontal=0;startSize=0;swimlaneHead=0;swimlaneBody=0;fillColor=none;collapsible=0;dropTarget=0;points=[[0,0.5],[1,0.5]];portConstraint=eastwest;top=0;left=0;right=0;bottom=0;fontSize=16;" vertex="1" parent="u-cAiTU_7cCfLOp1U_Qq-6">
          <mxGeometry y="265" width="180" height="45" as="geometry" />
        </mxCell>
        <mxCell id="u-cAiTU_7cCfLOp1U_Qq-23" value="" style="shape=partialRectangle;connectable=0;fillColor=none;top=0;left=0;bottom=0;right=0;editable=1;overflow=hidden;whiteSpace=wrap;html=1;fontSize=16;" vertex="1" parent="u-cAiTU_7cCfLOp1U_Qq-22">
          <mxGeometry width="30" height="45" as="geometry">
            <mxRectangle width="30" height="45" as="alternateBounds" />
          </mxGeometry>
        </mxCell>
        <mxCell id="u-cAiTU_7cCfLOp1U_Qq-24" value="country" style="shape=partialRectangle;connectable=0;fillColor=none;top=0;left=0;bottom=0;right=0;align=left;spacingLeft=6;overflow=hidden;whiteSpace=wrap;html=1;fontSize=16;" vertex="1" parent="u-cAiTU_7cCfLOp1U_Qq-22">
          <mxGeometry x="30" width="150" height="45" as="geometry">
            <mxRectangle width="150" height="45" as="alternateBounds" />
          </mxGeometry>
        </mxCell>
        <mxCell id="u-cAiTU_7cCfLOp1U_Qq-25" value="" style="shape=tableRow;horizontal=0;startSize=0;swimlaneHead=0;swimlaneBody=0;fillColor=none;collapsible=0;dropTarget=0;points=[[0,0.5],[1,0.5]];portConstraint=eastwest;top=0;left=0;right=0;bottom=0;fontSize=16;" vertex="1" parent="u-cAiTU_7cCfLOp1U_Qq-6">
          <mxGeometry y="310" width="180" height="45" as="geometry" />
        </mxCell>
        <mxCell id="u-cAiTU_7cCfLOp1U_Qq-26" value="" style="shape=partialRectangle;connectable=0;fillColor=none;top=0;left=0;bottom=0;right=0;editable=1;overflow=hidden;whiteSpace=wrap;html=1;fontSize=16;" vertex="1" parent="u-cAiTU_7cCfLOp1U_Qq-25">
          <mxGeometry width="30" height="45" as="geometry">
            <mxRectangle width="30" height="45" as="alternateBounds" />
          </mxGeometry>
        </mxCell>
        <mxCell id="u-cAiTU_7cCfLOp1U_Qq-27" value="marital_status" style="shape=partialRectangle;connectable=0;fillColor=none;top=0;left=0;bottom=0;right=0;align=left;spacingLeft=6;overflow=hidden;whiteSpace=wrap;html=1;fontSize=16;" vertex="1" parent="u-cAiTU_7cCfLOp1U_Qq-25">
          <mxGeometry x="30" width="150" height="45" as="geometry">
            <mxRectangle width="150" height="45" as="alternateBounds" />
          </mxGeometry>
        </mxCell>
        <mxCell id="u-cAiTU_7cCfLOp1U_Qq-28" value="" style="shape=tableRow;horizontal=0;startSize=0;swimlaneHead=0;swimlaneBody=0;fillColor=none;collapsible=0;dropTarget=0;points=[[0,0.5],[1,0.5]];portConstraint=eastwest;top=0;left=0;right=0;bottom=0;fontSize=16;" vertex="1" parent="u-cAiTU_7cCfLOp1U_Qq-6">
          <mxGeometry y="355" width="180" height="45" as="geometry" />
        </mxCell>
        <mxCell id="u-cAiTU_7cCfLOp1U_Qq-29" value="" style="shape=partialRectangle;connectable=0;fillColor=none;top=0;left=0;bottom=0;right=0;editable=1;overflow=hidden;whiteSpace=wrap;html=1;fontSize=16;" vertex="1" parent="u-cAiTU_7cCfLOp1U_Qq-28">
          <mxGeometry width="30" height="45" as="geometry">
            <mxRectangle width="30" height="45" as="alternateBounds" />
          </mxGeometry>
        </mxCell>
        <mxCell id="u-cAiTU_7cCfLOp1U_Qq-30" value="gender" style="shape=partialRectangle;connectable=0;fillColor=none;top=0;left=0;bottom=0;right=0;align=left;spacingLeft=6;overflow=hidden;whiteSpace=wrap;html=1;fontSize=16;" vertex="1" parent="u-cAiTU_7cCfLOp1U_Qq-28">
          <mxGeometry x="30" width="150" height="45" as="geometry">
            <mxRectangle width="150" height="45" as="alternateBounds" />
          </mxGeometry>
        </mxCell>
        <mxCell id="u-cAiTU_7cCfLOp1U_Qq-93" value="" style="shape=tableRow;horizontal=0;startSize=0;swimlaneHead=0;swimlaneBody=0;fillColor=none;collapsible=0;dropTarget=0;points=[[0,0.5],[1,0.5]];portConstraint=eastwest;top=0;left=0;right=0;bottom=0;fontSize=16;" vertex="1" parent="u-cAiTU_7cCfLOp1U_Qq-6">
          <mxGeometry y="400" width="180" height="45" as="geometry" />
        </mxCell>
        <mxCell id="u-cAiTU_7cCfLOp1U_Qq-94" value="" style="shape=partialRectangle;connectable=0;fillColor=none;top=0;left=0;bottom=0;right=0;editable=1;overflow=hidden;whiteSpace=wrap;html=1;fontSize=16;" vertex="1" parent="u-cAiTU_7cCfLOp1U_Qq-93">
          <mxGeometry width="30" height="45" as="geometry">
            <mxRectangle width="30" height="45" as="alternateBounds" />
          </mxGeometry>
        </mxCell>
        <mxCell id="u-cAiTU_7cCfLOp1U_Qq-95" value="birthdate" style="shape=partialRectangle;connectable=0;fillColor=none;top=0;left=0;bottom=0;right=0;align=left;spacingLeft=6;overflow=hidden;whiteSpace=wrap;html=1;fontSize=16;" vertex="1" parent="u-cAiTU_7cCfLOp1U_Qq-93">
          <mxGeometry x="30" width="150" height="45" as="geometry">
            <mxRectangle width="150" height="45" as="alternateBounds" />
          </mxGeometry>
        </mxCell>
        <mxCell id="u-cAiTU_7cCfLOp1U_Qq-96" value="" style="shape=tableRow;horizontal=0;startSize=0;swimlaneHead=0;swimlaneBody=0;fillColor=none;collapsible=0;dropTarget=0;points=[[0,0.5],[1,0.5]];portConstraint=eastwest;top=0;left=0;right=0;bottom=0;fontSize=16;" vertex="1" parent="u-cAiTU_7cCfLOp1U_Qq-6">
          <mxGeometry y="445" width="180" height="45" as="geometry" />
        </mxCell>
        <mxCell id="u-cAiTU_7cCfLOp1U_Qq-97" value="" style="shape=partialRectangle;connectable=0;fillColor=none;top=0;left=0;bottom=0;right=0;editable=1;overflow=hidden;whiteSpace=wrap;html=1;fontSize=16;" vertex="1" parent="u-cAiTU_7cCfLOp1U_Qq-96">
          <mxGeometry width="30" height="45" as="geometry">
            <mxRectangle width="30" height="45" as="alternateBounds" />
          </mxGeometry>
        </mxCell>
        <mxCell id="u-cAiTU_7cCfLOp1U_Qq-98" value="country" style="shape=partialRectangle;connectable=0;fillColor=none;top=0;left=0;bottom=0;right=0;align=left;spacingLeft=6;overflow=hidden;whiteSpace=wrap;html=1;fontSize=16;" vertex="1" parent="u-cAiTU_7cCfLOp1U_Qq-96">
          <mxGeometry x="30" width="150" height="45" as="geometry">
            <mxRectangle width="150" height="45" as="alternateBounds" />
          </mxGeometry>
        </mxCell>
        <mxCell id="u-cAiTU_7cCfLOp1U_Qq-31" value="&lt;span style=&quot;font-size: 13px;&quot;&gt;gold.fact_table&lt;/span&gt;" style="shape=table;startSize=40;container=1;collapsible=1;childLayout=tableLayout;fixedRows=1;rowLines=0;fontStyle=1;align=center;resizeLast=1;html=1;rounded=1;fillColor=#dae8fc;strokeColor=#6c8ebf;fontSize=16;" vertex="1" parent="1">
          <mxGeometry x="380" y="80" width="180" height="490" as="geometry" />
        </mxCell>
        <mxCell id="u-cAiTU_7cCfLOp1U_Qq-32" value="" style="shape=tableRow;horizontal=0;startSize=0;swimlaneHead=0;swimlaneBody=0;fillColor=none;collapsible=0;dropTarget=0;points=[[0,0.5],[1,0.5]];portConstraint=eastwest;top=0;left=0;right=0;bottom=1;fontSize=16;" vertex="1" parent="u-cAiTU_7cCfLOp1U_Qq-31">
          <mxGeometry y="40" width="180" height="45" as="geometry" />
        </mxCell>
        <mxCell id="u-cAiTU_7cCfLOp1U_Qq-33" value="" style="shape=partialRectangle;connectable=0;fillColor=none;top=0;left=0;bottom=0;right=0;fontStyle=1;overflow=hidden;whiteSpace=wrap;html=1;fontSize=16;" vertex="1" parent="u-cAiTU_7cCfLOp1U_Qq-32">
          <mxGeometry width="40" height="45" as="geometry">
            <mxRectangle width="40" height="45" as="alternateBounds" />
          </mxGeometry>
        </mxCell>
        <mxCell id="u-cAiTU_7cCfLOp1U_Qq-34" value="product_key" style="shape=partialRectangle;connectable=0;fillColor=none;top=0;left=0;bottom=0;right=0;align=left;spacingLeft=6;fontStyle=5;overflow=hidden;whiteSpace=wrap;html=1;fontSize=16;" vertex="1" parent="u-cAiTU_7cCfLOp1U_Qq-32">
          <mxGeometry x="40" width="140" height="45" as="geometry">
            <mxRectangle width="140" height="45" as="alternateBounds" />
          </mxGeometry>
        </mxCell>
        <mxCell id="u-cAiTU_7cCfLOp1U_Qq-35" value="" style="shape=tableRow;horizontal=0;startSize=0;swimlaneHead=0;swimlaneBody=0;fillColor=none;collapsible=0;dropTarget=0;points=[[0,0.5],[1,0.5]];portConstraint=eastwest;top=0;left=0;right=0;bottom=0;fontSize=16;" vertex="1" parent="u-cAiTU_7cCfLOp1U_Qq-31">
          <mxGeometry y="85" width="180" height="45" as="geometry" />
        </mxCell>
        <mxCell id="u-cAiTU_7cCfLOp1U_Qq-36" value="" style="shape=partialRectangle;connectable=0;fillColor=none;top=0;left=0;bottom=0;right=0;editable=1;overflow=hidden;whiteSpace=wrap;html=1;fontSize=16;" vertex="1" parent="u-cAiTU_7cCfLOp1U_Qq-35">
          <mxGeometry width="40" height="45" as="geometry">
            <mxRectangle width="40" height="45" as="alternateBounds" />
          </mxGeometry>
        </mxCell>
        <mxCell id="u-cAiTU_7cCfLOp1U_Qq-37" value="order_number" style="shape=partialRectangle;connectable=0;fillColor=none;top=0;left=0;bottom=0;right=0;align=left;spacingLeft=6;overflow=hidden;whiteSpace=wrap;html=1;fontSize=16;" vertex="1" parent="u-cAiTU_7cCfLOp1U_Qq-35">
          <mxGeometry x="40" width="140" height="45" as="geometry">
            <mxRectangle width="140" height="45" as="alternateBounds" />
          </mxGeometry>
        </mxCell>
        <mxCell id="u-cAiTU_7cCfLOp1U_Qq-38" value="" style="shape=tableRow;horizontal=0;startSize=0;swimlaneHead=0;swimlaneBody=0;fillColor=none;collapsible=0;dropTarget=0;points=[[0,0.5],[1,0.5]];portConstraint=eastwest;top=0;left=0;right=0;bottom=0;fontSize=16;" vertex="1" parent="u-cAiTU_7cCfLOp1U_Qq-31">
          <mxGeometry y="130" width="180" height="45" as="geometry" />
        </mxCell>
        <mxCell id="u-cAiTU_7cCfLOp1U_Qq-39" value="&lt;b&gt;FK1&lt;/b&gt;" style="shape=partialRectangle;connectable=0;fillColor=none;top=0;left=0;bottom=0;right=0;editable=1;overflow=hidden;whiteSpace=wrap;html=1;fontSize=16;" vertex="1" parent="u-cAiTU_7cCfLOp1U_Qq-38">
          <mxGeometry width="40" height="45" as="geometry">
            <mxRectangle width="40" height="45" as="alternateBounds" />
          </mxGeometry>
        </mxCell>
        <mxCell id="u-cAiTU_7cCfLOp1U_Qq-40" value="&lt;span style=&quot;background-color: rgb(204, 204, 204);&quot;&gt;product_key&lt;/span&gt;" style="shape=partialRectangle;connectable=0;fillColor=none;top=0;left=0;bottom=0;right=0;align=left;spacingLeft=6;overflow=hidden;whiteSpace=wrap;html=1;fontSize=16;" vertex="1" parent="u-cAiTU_7cCfLOp1U_Qq-38">
          <mxGeometry x="40" width="140" height="45" as="geometry">
            <mxRectangle width="140" height="45" as="alternateBounds" />
          </mxGeometry>
        </mxCell>
        <mxCell id="u-cAiTU_7cCfLOp1U_Qq-41" value="" style="shape=tableRow;horizontal=0;startSize=0;swimlaneHead=0;swimlaneBody=0;fillColor=none;collapsible=0;dropTarget=0;points=[[0,0.5],[1,0.5]];portConstraint=eastwest;top=0;left=0;right=0;bottom=0;fontSize=16;" vertex="1" parent="u-cAiTU_7cCfLOp1U_Qq-31">
          <mxGeometry y="175" width="180" height="45" as="geometry" />
        </mxCell>
        <mxCell id="u-cAiTU_7cCfLOp1U_Qq-42" value="&lt;b&gt;FK2&lt;/b&gt;" style="shape=partialRectangle;connectable=0;fillColor=none;top=0;left=0;bottom=0;right=0;editable=1;overflow=hidden;whiteSpace=wrap;html=1;fontSize=16;" vertex="1" parent="u-cAiTU_7cCfLOp1U_Qq-41">
          <mxGeometry width="40" height="45" as="geometry">
            <mxRectangle width="40" height="45" as="alternateBounds" />
          </mxGeometry>
        </mxCell>
        <mxCell id="u-cAiTU_7cCfLOp1U_Qq-43" value="&lt;span style=&quot;background-color: rgb(204, 204, 204);&quot;&gt;customer_key&lt;/span&gt;" style="shape=partialRectangle;connectable=0;fillColor=none;top=0;left=0;bottom=0;right=0;align=left;spacingLeft=6;overflow=hidden;whiteSpace=wrap;html=1;fontSize=16;" vertex="1" parent="u-cAiTU_7cCfLOp1U_Qq-41">
          <mxGeometry x="40" width="140" height="45" as="geometry">
            <mxRectangle width="140" height="45" as="alternateBounds" />
          </mxGeometry>
        </mxCell>
        <mxCell id="u-cAiTU_7cCfLOp1U_Qq-44" value="" style="shape=tableRow;horizontal=0;startSize=0;swimlaneHead=0;swimlaneBody=0;fillColor=none;collapsible=0;dropTarget=0;points=[[0,0.5],[1,0.5]];portConstraint=eastwest;top=0;left=0;right=0;bottom=0;fontSize=16;" vertex="1" parent="u-cAiTU_7cCfLOp1U_Qq-31">
          <mxGeometry y="220" width="180" height="45" as="geometry" />
        </mxCell>
        <mxCell id="u-cAiTU_7cCfLOp1U_Qq-45" value="" style="shape=partialRectangle;connectable=0;fillColor=none;top=0;left=0;bottom=0;right=0;editable=1;overflow=hidden;whiteSpace=wrap;html=1;fontSize=16;" vertex="1" parent="u-cAiTU_7cCfLOp1U_Qq-44">
          <mxGeometry width="40" height="45" as="geometry">
            <mxRectangle width="40" height="45" as="alternateBounds" />
          </mxGeometry>
        </mxCell>
        <mxCell id="u-cAiTU_7cCfLOp1U_Qq-46" value="order_date" style="shape=partialRectangle;connectable=0;fillColor=none;top=0;left=0;bottom=0;right=0;align=left;spacingLeft=6;overflow=hidden;whiteSpace=wrap;html=1;fontSize=16;" vertex="1" parent="u-cAiTU_7cCfLOp1U_Qq-44">
          <mxGeometry x="40" width="140" height="45" as="geometry">
            <mxRectangle width="140" height="45" as="alternateBounds" />
          </mxGeometry>
        </mxCell>
        <mxCell id="u-cAiTU_7cCfLOp1U_Qq-47" value="" style="shape=tableRow;horizontal=0;startSize=0;swimlaneHead=0;swimlaneBody=0;fillColor=none;collapsible=0;dropTarget=0;points=[[0,0.5],[1,0.5]];portConstraint=eastwest;top=0;left=0;right=0;bottom=0;fontSize=16;" vertex="1" parent="u-cAiTU_7cCfLOp1U_Qq-31">
          <mxGeometry y="265" width="180" height="45" as="geometry" />
        </mxCell>
        <mxCell id="u-cAiTU_7cCfLOp1U_Qq-48" value="" style="shape=partialRectangle;connectable=0;fillColor=none;top=0;left=0;bottom=0;right=0;editable=1;overflow=hidden;whiteSpace=wrap;html=1;fontSize=16;" vertex="1" parent="u-cAiTU_7cCfLOp1U_Qq-47">
          <mxGeometry width="40" height="45" as="geometry">
            <mxRectangle width="40" height="45" as="alternateBounds" />
          </mxGeometry>
        </mxCell>
        <mxCell id="u-cAiTU_7cCfLOp1U_Qq-49" value="shipping_date" style="shape=partialRectangle;connectable=0;fillColor=none;top=0;left=0;bottom=0;right=0;align=left;spacingLeft=6;overflow=hidden;whiteSpace=wrap;html=1;fontSize=16;" vertex="1" parent="u-cAiTU_7cCfLOp1U_Qq-47">
          <mxGeometry x="40" width="140" height="45" as="geometry">
            <mxRectangle width="140" height="45" as="alternateBounds" />
          </mxGeometry>
        </mxCell>
        <mxCell id="u-cAiTU_7cCfLOp1U_Qq-50" value="" style="shape=tableRow;horizontal=0;startSize=0;swimlaneHead=0;swimlaneBody=0;fillColor=none;collapsible=0;dropTarget=0;points=[[0,0.5],[1,0.5]];portConstraint=eastwest;top=0;left=0;right=0;bottom=0;fontSize=16;" vertex="1" parent="u-cAiTU_7cCfLOp1U_Qq-31">
          <mxGeometry y="310" width="180" height="45" as="geometry" />
        </mxCell>
        <mxCell id="u-cAiTU_7cCfLOp1U_Qq-51" value="" style="shape=partialRectangle;connectable=0;fillColor=none;top=0;left=0;bottom=0;right=0;editable=1;overflow=hidden;whiteSpace=wrap;html=1;fontSize=16;" vertex="1" parent="u-cAiTU_7cCfLOp1U_Qq-50">
          <mxGeometry width="40" height="45" as="geometry">
            <mxRectangle width="40" height="45" as="alternateBounds" />
          </mxGeometry>
        </mxCell>
        <mxCell id="u-cAiTU_7cCfLOp1U_Qq-52" value="due_date" style="shape=partialRectangle;connectable=0;fillColor=none;top=0;left=0;bottom=0;right=0;align=left;spacingLeft=6;overflow=hidden;whiteSpace=wrap;html=1;fontSize=16;" vertex="1" parent="u-cAiTU_7cCfLOp1U_Qq-50">
          <mxGeometry x="40" width="140" height="45" as="geometry">
            <mxRectangle width="140" height="45" as="alternateBounds" />
          </mxGeometry>
        </mxCell>
        <mxCell id="u-cAiTU_7cCfLOp1U_Qq-53" value="" style="shape=tableRow;horizontal=0;startSize=0;swimlaneHead=0;swimlaneBody=0;fillColor=none;collapsible=0;dropTarget=0;points=[[0,0.5],[1,0.5]];portConstraint=eastwest;top=0;left=0;right=0;bottom=0;fontSize=16;" vertex="1" parent="u-cAiTU_7cCfLOp1U_Qq-31">
          <mxGeometry y="355" width="180" height="45" as="geometry" />
        </mxCell>
        <mxCell id="u-cAiTU_7cCfLOp1U_Qq-54" value="" style="shape=partialRectangle;connectable=0;fillColor=none;top=0;left=0;bottom=0;right=0;editable=1;overflow=hidden;whiteSpace=wrap;html=1;fontSize=16;" vertex="1" parent="u-cAiTU_7cCfLOp1U_Qq-53">
          <mxGeometry width="40" height="45" as="geometry">
            <mxRectangle width="40" height="45" as="alternateBounds" />
          </mxGeometry>
        </mxCell>
        <mxCell id="u-cAiTU_7cCfLOp1U_Qq-55" value="sales_amount" style="shape=partialRectangle;connectable=0;fillColor=none;top=0;left=0;bottom=0;right=0;align=left;spacingLeft=6;overflow=hidden;whiteSpace=wrap;html=1;fontSize=16;" vertex="1" parent="u-cAiTU_7cCfLOp1U_Qq-53">
          <mxGeometry x="40" width="140" height="45" as="geometry">
            <mxRectangle width="140" height="45" as="alternateBounds" />
          </mxGeometry>
        </mxCell>
        <mxCell id="u-cAiTU_7cCfLOp1U_Qq-56" value="" style="shape=tableRow;horizontal=0;startSize=0;swimlaneHead=0;swimlaneBody=0;fillColor=none;collapsible=0;dropTarget=0;points=[[0,0.5],[1,0.5]];portConstraint=eastwest;top=0;left=0;right=0;bottom=0;fontSize=16;" vertex="1" parent="u-cAiTU_7cCfLOp1U_Qq-31">
          <mxGeometry y="400" width="180" height="45" as="geometry" />
        </mxCell>
        <mxCell id="u-cAiTU_7cCfLOp1U_Qq-57" value="" style="shape=partialRectangle;connectable=0;fillColor=none;top=0;left=0;bottom=0;right=0;editable=1;overflow=hidden;whiteSpace=wrap;html=1;fontSize=16;" vertex="1" parent="u-cAiTU_7cCfLOp1U_Qq-56">
          <mxGeometry width="40" height="45" as="geometry">
            <mxRectangle width="40" height="45" as="alternateBounds" />
          </mxGeometry>
        </mxCell>
        <mxCell id="u-cAiTU_7cCfLOp1U_Qq-58" value="quantity" style="shape=partialRectangle;connectable=0;fillColor=none;top=0;left=0;bottom=0;right=0;align=left;spacingLeft=6;overflow=hidden;whiteSpace=wrap;html=1;fontSize=16;" vertex="1" parent="u-cAiTU_7cCfLOp1U_Qq-56">
          <mxGeometry x="40" width="140" height="45" as="geometry">
            <mxRectangle width="140" height="45" as="alternateBounds" />
          </mxGeometry>
        </mxCell>
        <mxCell id="u-cAiTU_7cCfLOp1U_Qq-59" value="" style="shape=tableRow;horizontal=0;startSize=0;swimlaneHead=0;swimlaneBody=0;fillColor=none;collapsible=0;dropTarget=0;points=[[0,0.5],[1,0.5]];portConstraint=eastwest;top=0;left=0;right=0;bottom=0;fontSize=16;" vertex="1" parent="u-cAiTU_7cCfLOp1U_Qq-31">
          <mxGeometry y="445" width="180" height="45" as="geometry" />
        </mxCell>
        <mxCell id="u-cAiTU_7cCfLOp1U_Qq-60" value="" style="shape=partialRectangle;connectable=0;fillColor=none;top=0;left=0;bottom=0;right=0;editable=1;overflow=hidden;whiteSpace=wrap;html=1;fontSize=16;" vertex="1" parent="u-cAiTU_7cCfLOp1U_Qq-59">
          <mxGeometry width="40" height="45" as="geometry">
            <mxRectangle width="40" height="45" as="alternateBounds" />
          </mxGeometry>
        </mxCell>
        <mxCell id="u-cAiTU_7cCfLOp1U_Qq-61" value="price" style="shape=partialRectangle;connectable=0;fillColor=none;top=0;left=0;bottom=0;right=0;align=left;spacingLeft=6;overflow=hidden;whiteSpace=wrap;html=1;fontSize=16;" vertex="1" parent="u-cAiTU_7cCfLOp1U_Qq-59">
          <mxGeometry x="40" width="140" height="45" as="geometry">
            <mxRectangle width="140" height="45" as="alternateBounds" />
          </mxGeometry>
        </mxCell>
        <mxCell id="u-cAiTU_7cCfLOp1U_Qq-62" value="&lt;font style=&quot;font-size: 13px;&quot;&gt;gold.dimension_products&lt;/font&gt;" style="shape=table;startSize=40;container=1;collapsible=1;childLayout=tableLayout;fixedRows=1;rowLines=0;fontStyle=1;align=center;resizeLast=1;html=1;rounded=1;fillColor=#fff2cc;strokeColor=#d6b656;fontSize=16;" vertex="1" parent="1">
          <mxGeometry x="700" y="75" width="180" height="490" as="geometry" />
        </mxCell>
        <mxCell id="u-cAiTU_7cCfLOp1U_Qq-63" value="" style="shape=tableRow;horizontal=0;startSize=0;swimlaneHead=0;swimlaneBody=0;fillColor=none;collapsible=0;dropTarget=0;points=[[0,0.5],[1,0.5]];portConstraint=eastwest;top=0;left=0;right=0;bottom=1;fontSize=16;" vertex="1" parent="u-cAiTU_7cCfLOp1U_Qq-62">
          <mxGeometry y="40" width="180" height="45" as="geometry" />
        </mxCell>
        <mxCell id="u-cAiTU_7cCfLOp1U_Qq-64" value="PK" style="shape=partialRectangle;connectable=0;fillColor=none;top=0;left=0;bottom=0;right=0;fontStyle=1;overflow=hidden;whiteSpace=wrap;html=1;fontSize=16;" vertex="1" parent="u-cAiTU_7cCfLOp1U_Qq-63">
          <mxGeometry width="30" height="45" as="geometry">
            <mxRectangle width="30" height="45" as="alternateBounds" />
          </mxGeometry>
        </mxCell>
        <mxCell id="u-cAiTU_7cCfLOp1U_Qq-65" value="&lt;span style=&quot;background-color: rgb(204, 204, 204);&quot;&gt;product_key&lt;/span&gt;" style="shape=partialRectangle;connectable=0;fillColor=none;top=0;left=0;bottom=0;right=0;align=left;spacingLeft=6;fontStyle=5;overflow=hidden;whiteSpace=wrap;html=1;fontSize=16;" vertex="1" parent="u-cAiTU_7cCfLOp1U_Qq-63">
          <mxGeometry x="30" width="150" height="45" as="geometry">
            <mxRectangle width="150" height="45" as="alternateBounds" />
          </mxGeometry>
        </mxCell>
        <mxCell id="u-cAiTU_7cCfLOp1U_Qq-66" value="" style="shape=tableRow;horizontal=0;startSize=0;swimlaneHead=0;swimlaneBody=0;fillColor=none;collapsible=0;dropTarget=0;points=[[0,0.5],[1,0.5]];portConstraint=eastwest;top=0;left=0;right=0;bottom=0;fontSize=16;" vertex="1" parent="u-cAiTU_7cCfLOp1U_Qq-62">
          <mxGeometry y="85" width="180" height="45" as="geometry" />
        </mxCell>
        <mxCell id="u-cAiTU_7cCfLOp1U_Qq-67" value="" style="shape=partialRectangle;connectable=0;fillColor=none;top=0;left=0;bottom=0;right=0;editable=1;overflow=hidden;whiteSpace=wrap;html=1;fontSize=16;" vertex="1" parent="u-cAiTU_7cCfLOp1U_Qq-66">
          <mxGeometry width="30" height="45" as="geometry">
            <mxRectangle width="30" height="45" as="alternateBounds" />
          </mxGeometry>
        </mxCell>
        <mxCell id="u-cAiTU_7cCfLOp1U_Qq-68" value="product_id" style="shape=partialRectangle;connectable=0;fillColor=none;top=0;left=0;bottom=0;right=0;align=left;spacingLeft=6;overflow=hidden;whiteSpace=wrap;html=1;fontSize=16;" vertex="1" parent="u-cAiTU_7cCfLOp1U_Qq-66">
          <mxGeometry x="30" width="150" height="45" as="geometry">
            <mxRectangle width="150" height="45" as="alternateBounds" />
          </mxGeometry>
        </mxCell>
        <mxCell id="u-cAiTU_7cCfLOp1U_Qq-69" value="" style="shape=tableRow;horizontal=0;startSize=0;swimlaneHead=0;swimlaneBody=0;fillColor=none;collapsible=0;dropTarget=0;points=[[0,0.5],[1,0.5]];portConstraint=eastwest;top=0;left=0;right=0;bottom=0;fontSize=16;" vertex="1" parent="u-cAiTU_7cCfLOp1U_Qq-62">
          <mxGeometry y="130" width="180" height="45" as="geometry" />
        </mxCell>
        <mxCell id="u-cAiTU_7cCfLOp1U_Qq-70" value="" style="shape=partialRectangle;connectable=0;fillColor=none;top=0;left=0;bottom=0;right=0;editable=1;overflow=hidden;whiteSpace=wrap;html=1;fontSize=16;" vertex="1" parent="u-cAiTU_7cCfLOp1U_Qq-69">
          <mxGeometry width="30" height="45" as="geometry">
            <mxRectangle width="30" height="45" as="alternateBounds" />
          </mxGeometry>
        </mxCell>
        <mxCell id="u-cAiTU_7cCfLOp1U_Qq-71" value="product_number" style="shape=partialRectangle;connectable=0;fillColor=none;top=0;left=0;bottom=0;right=0;align=left;spacingLeft=6;overflow=hidden;whiteSpace=wrap;html=1;fontSize=16;" vertex="1" parent="u-cAiTU_7cCfLOp1U_Qq-69">
          <mxGeometry x="30" width="150" height="45" as="geometry">
            <mxRectangle width="150" height="45" as="alternateBounds" />
          </mxGeometry>
        </mxCell>
        <mxCell id="u-cAiTU_7cCfLOp1U_Qq-72" value="" style="shape=tableRow;horizontal=0;startSize=0;swimlaneHead=0;swimlaneBody=0;fillColor=none;collapsible=0;dropTarget=0;points=[[0,0.5],[1,0.5]];portConstraint=eastwest;top=0;left=0;right=0;bottom=0;fontSize=16;" vertex="1" parent="u-cAiTU_7cCfLOp1U_Qq-62">
          <mxGeometry y="175" width="180" height="45" as="geometry" />
        </mxCell>
        <mxCell id="u-cAiTU_7cCfLOp1U_Qq-73" value="" style="shape=partialRectangle;connectable=0;fillColor=none;top=0;left=0;bottom=0;right=0;editable=1;overflow=hidden;whiteSpace=wrap;html=1;fontSize=16;" vertex="1" parent="u-cAiTU_7cCfLOp1U_Qq-72">
          <mxGeometry width="30" height="45" as="geometry">
            <mxRectangle width="30" height="45" as="alternateBounds" />
          </mxGeometry>
        </mxCell>
        <mxCell id="u-cAiTU_7cCfLOp1U_Qq-74" value="category_id" style="shape=partialRectangle;connectable=0;fillColor=none;top=0;left=0;bottom=0;right=0;align=left;spacingLeft=6;overflow=hidden;whiteSpace=wrap;html=1;fontSize=16;" vertex="1" parent="u-cAiTU_7cCfLOp1U_Qq-72">
          <mxGeometry x="30" width="150" height="45" as="geometry">
            <mxRectangle width="150" height="45" as="alternateBounds" />
          </mxGeometry>
        </mxCell>
        <mxCell id="u-cAiTU_7cCfLOp1U_Qq-75" value="" style="shape=tableRow;horizontal=0;startSize=0;swimlaneHead=0;swimlaneBody=0;fillColor=none;collapsible=0;dropTarget=0;points=[[0,0.5],[1,0.5]];portConstraint=eastwest;top=0;left=0;right=0;bottom=0;fontSize=16;" vertex="1" parent="u-cAiTU_7cCfLOp1U_Qq-62">
          <mxGeometry y="220" width="180" height="45" as="geometry" />
        </mxCell>
        <mxCell id="u-cAiTU_7cCfLOp1U_Qq-76" value="" style="shape=partialRectangle;connectable=0;fillColor=none;top=0;left=0;bottom=0;right=0;editable=1;overflow=hidden;whiteSpace=wrap;html=1;fontSize=16;" vertex="1" parent="u-cAiTU_7cCfLOp1U_Qq-75">
          <mxGeometry width="30" height="45" as="geometry">
            <mxRectangle width="30" height="45" as="alternateBounds" />
          </mxGeometry>
        </mxCell>
        <mxCell id="u-cAiTU_7cCfLOp1U_Qq-77" value="category" style="shape=partialRectangle;connectable=0;fillColor=none;top=0;left=0;bottom=0;right=0;align=left;spacingLeft=6;overflow=hidden;whiteSpace=wrap;html=1;fontSize=16;" vertex="1" parent="u-cAiTU_7cCfLOp1U_Qq-75">
          <mxGeometry x="30" width="150" height="45" as="geometry">
            <mxRectangle width="150" height="45" as="alternateBounds" />
          </mxGeometry>
        </mxCell>
        <mxCell id="u-cAiTU_7cCfLOp1U_Qq-78" value="" style="shape=tableRow;horizontal=0;startSize=0;swimlaneHead=0;swimlaneBody=0;fillColor=none;collapsible=0;dropTarget=0;points=[[0,0.5],[1,0.5]];portConstraint=eastwest;top=0;left=0;right=0;bottom=0;fontSize=16;" vertex="1" parent="u-cAiTU_7cCfLOp1U_Qq-62">
          <mxGeometry y="265" width="180" height="45" as="geometry" />
        </mxCell>
        <mxCell id="u-cAiTU_7cCfLOp1U_Qq-79" value="" style="shape=partialRectangle;connectable=0;fillColor=none;top=0;left=0;bottom=0;right=0;editable=1;overflow=hidden;whiteSpace=wrap;html=1;fontSize=16;" vertex="1" parent="u-cAiTU_7cCfLOp1U_Qq-78">
          <mxGeometry width="30" height="45" as="geometry">
            <mxRectangle width="30" height="45" as="alternateBounds" />
          </mxGeometry>
        </mxCell>
        <mxCell id="u-cAiTU_7cCfLOp1U_Qq-80" value="subcategory" style="shape=partialRectangle;connectable=0;fillColor=none;top=0;left=0;bottom=0;right=0;align=left;spacingLeft=6;overflow=hidden;whiteSpace=wrap;html=1;fontSize=16;" vertex="1" parent="u-cAiTU_7cCfLOp1U_Qq-78">
          <mxGeometry x="30" width="150" height="45" as="geometry">
            <mxRectangle width="150" height="45" as="alternateBounds" />
          </mxGeometry>
        </mxCell>
        <mxCell id="u-cAiTU_7cCfLOp1U_Qq-81" value="" style="shape=tableRow;horizontal=0;startSize=0;swimlaneHead=0;swimlaneBody=0;fillColor=none;collapsible=0;dropTarget=0;points=[[0,0.5],[1,0.5]];portConstraint=eastwest;top=0;left=0;right=0;bottom=0;fontSize=16;" vertex="1" parent="u-cAiTU_7cCfLOp1U_Qq-62">
          <mxGeometry y="310" width="180" height="45" as="geometry" />
        </mxCell>
        <mxCell id="u-cAiTU_7cCfLOp1U_Qq-82" value="" style="shape=partialRectangle;connectable=0;fillColor=none;top=0;left=0;bottom=0;right=0;editable=1;overflow=hidden;whiteSpace=wrap;html=1;fontSize=16;" vertex="1" parent="u-cAiTU_7cCfLOp1U_Qq-81">
          <mxGeometry width="30" height="45" as="geometry">
            <mxRectangle width="30" height="45" as="alternateBounds" />
          </mxGeometry>
        </mxCell>
        <mxCell id="u-cAiTU_7cCfLOp1U_Qq-83" value="maintenance" style="shape=partialRectangle;connectable=0;fillColor=none;top=0;left=0;bottom=0;right=0;align=left;spacingLeft=6;overflow=hidden;whiteSpace=wrap;html=1;fontSize=16;" vertex="1" parent="u-cAiTU_7cCfLOp1U_Qq-81">
          <mxGeometry x="30" width="150" height="45" as="geometry">
            <mxRectangle width="150" height="45" as="alternateBounds" />
          </mxGeometry>
        </mxCell>
        <mxCell id="u-cAiTU_7cCfLOp1U_Qq-84" value="" style="shape=tableRow;horizontal=0;startSize=0;swimlaneHead=0;swimlaneBody=0;fillColor=none;collapsible=0;dropTarget=0;points=[[0,0.5],[1,0.5]];portConstraint=eastwest;top=0;left=0;right=0;bottom=0;fontSize=16;" vertex="1" parent="u-cAiTU_7cCfLOp1U_Qq-62">
          <mxGeometry y="355" width="180" height="45" as="geometry" />
        </mxCell>
        <mxCell id="u-cAiTU_7cCfLOp1U_Qq-85" value="" style="shape=partialRectangle;connectable=0;fillColor=none;top=0;left=0;bottom=0;right=0;editable=1;overflow=hidden;whiteSpace=wrap;html=1;fontSize=16;" vertex="1" parent="u-cAiTU_7cCfLOp1U_Qq-84">
          <mxGeometry width="30" height="45" as="geometry">
            <mxRectangle width="30" height="45" as="alternateBounds" />
          </mxGeometry>
        </mxCell>
        <mxCell id="u-cAiTU_7cCfLOp1U_Qq-86" value="cost" style="shape=partialRectangle;connectable=0;fillColor=none;top=0;left=0;bottom=0;right=0;align=left;spacingLeft=6;overflow=hidden;whiteSpace=wrap;html=1;fontSize=16;" vertex="1" parent="u-cAiTU_7cCfLOp1U_Qq-84">
          <mxGeometry x="30" width="150" height="45" as="geometry">
            <mxRectangle width="150" height="45" as="alternateBounds" />
          </mxGeometry>
        </mxCell>
        <mxCell id="u-cAiTU_7cCfLOp1U_Qq-87" value="" style="shape=tableRow;horizontal=0;startSize=0;swimlaneHead=0;swimlaneBody=0;fillColor=none;collapsible=0;dropTarget=0;points=[[0,0.5],[1,0.5]];portConstraint=eastwest;top=0;left=0;right=0;bottom=0;fontSize=16;" vertex="1" parent="u-cAiTU_7cCfLOp1U_Qq-62">
          <mxGeometry y="400" width="180" height="45" as="geometry" />
        </mxCell>
        <mxCell id="u-cAiTU_7cCfLOp1U_Qq-88" value="" style="shape=partialRectangle;connectable=0;fillColor=none;top=0;left=0;bottom=0;right=0;editable=1;overflow=hidden;whiteSpace=wrap;html=1;fontSize=16;" vertex="1" parent="u-cAiTU_7cCfLOp1U_Qq-87">
          <mxGeometry width="30" height="45" as="geometry">
            <mxRectangle width="30" height="45" as="alternateBounds" />
          </mxGeometry>
        </mxCell>
        <mxCell id="u-cAiTU_7cCfLOp1U_Qq-89" value="product_line" style="shape=partialRectangle;connectable=0;fillColor=none;top=0;left=0;bottom=0;right=0;align=left;spacingLeft=6;overflow=hidden;whiteSpace=wrap;html=1;fontSize=16;" vertex="1" parent="u-cAiTU_7cCfLOp1U_Qq-87">
          <mxGeometry x="30" width="150" height="45" as="geometry">
            <mxRectangle width="150" height="45" as="alternateBounds" />
          </mxGeometry>
        </mxCell>
        <mxCell id="u-cAiTU_7cCfLOp1U_Qq-90" value="" style="shape=tableRow;horizontal=0;startSize=0;swimlaneHead=0;swimlaneBody=0;fillColor=none;collapsible=0;dropTarget=0;points=[[0,0.5],[1,0.5]];portConstraint=eastwest;top=0;left=0;right=0;bottom=0;fontSize=16;" vertex="1" parent="u-cAiTU_7cCfLOp1U_Qq-62">
          <mxGeometry y="445" width="180" height="45" as="geometry" />
        </mxCell>
        <mxCell id="u-cAiTU_7cCfLOp1U_Qq-91" value="" style="shape=partialRectangle;connectable=0;fillColor=none;top=0;left=0;bottom=0;right=0;editable=1;overflow=hidden;whiteSpace=wrap;html=1;fontSize=16;" vertex="1" parent="u-cAiTU_7cCfLOp1U_Qq-90">
          <mxGeometry width="30" height="45" as="geometry">
            <mxRectangle width="30" height="45" as="alternateBounds" />
          </mxGeometry>
        </mxCell>
        <mxCell id="u-cAiTU_7cCfLOp1U_Qq-92" value="start_date" style="shape=partialRectangle;connectable=0;fillColor=none;top=0;left=0;bottom=0;right=0;align=left;spacingLeft=6;overflow=hidden;whiteSpace=wrap;html=1;fontSize=16;" vertex="1" parent="u-cAiTU_7cCfLOp1U_Qq-90">
          <mxGeometry x="30" width="150" height="45" as="geometry">
            <mxRectangle width="150" height="45" as="alternateBounds" />
          </mxGeometry>
        </mxCell>
        <mxCell id="u-cAiTU_7cCfLOp1U_Qq-99" value="" style="edgeStyle=entityRelationEdgeStyle;fontSize=12;html=1;endArrow=ERzeroToMany;startArrow=ERmandOne;rounded=0;exitX=1;exitY=0.5;exitDx=0;exitDy=0;entryX=0;entryY=0.5;entryDx=0;entryDy=0;" edge="1" parent="1" source="u-cAiTU_7cCfLOp1U_Qq-7" target="u-cAiTU_7cCfLOp1U_Qq-41">
          <mxGeometry width="100" height="100" relative="1" as="geometry">
            <mxPoint x="220" y="290" as="sourcePoint" />
            <mxPoint x="320" y="190" as="targetPoint" />
            <Array as="points">
              <mxPoint x="230" y="290" />
            </Array>
          </mxGeometry>
        </mxCell>
        <mxCell id="u-cAiTU_7cCfLOp1U_Qq-100" value="" style="edgeStyle=entityRelationEdgeStyle;fontSize=12;html=1;endArrow=ERzeroToMany;startArrow=ERmandOne;rounded=0;exitX=0;exitY=0.5;exitDx=0;exitDy=0;entryX=1;entryY=0.5;entryDx=0;entryDy=0;" edge="1" parent="1" source="u-cAiTU_7cCfLOp1U_Qq-63" target="u-cAiTU_7cCfLOp1U_Qq-38">
          <mxGeometry width="100" height="100" relative="1" as="geometry">
            <mxPoint x="470" y="280" as="sourcePoint" />
            <mxPoint x="550" y="160" as="targetPoint" />
          </mxGeometry>
        </mxCell>
        <mxCell id="u-cAiTU_7cCfLOp1U_Qq-101" value="&lt;h1 style=&quot;margin-top: 0px;&quot;&gt;&lt;font style=&quot;font-size: 14px;&quot;&gt;&lt;u&gt;Sales Calculation&lt;/u&gt;&lt;/font&gt;&lt;/h1&gt;&lt;p&gt;Sales = Quantity * Price&lt;/p&gt;" style="text;html=1;whiteSpace=wrap;overflow=hidden;rounded=0;" vertex="1" parent="1">
          <mxGeometry x="530" y="570" width="160" height="90" as="geometry" />
        </mxCell>
        <mxCell id="u-cAiTU_7cCfLOp1U_Qq-102" value="" style="endArrow=none;dashed=1;html=1;dashPattern=1 3;strokeWidth=2;rounded=0;" edge="1" parent="1" source="u-cAiTU_7cCfLOp1U_Qq-101" target="u-cAiTU_7cCfLOp1U_Qq-53">
          <mxGeometry width="50" height="50" relative="1" as="geometry">
            <mxPoint x="390" y="615" as="sourcePoint" />
            <mxPoint x="440" y="565" as="targetPoint" />
          </mxGeometry>
        </mxCell>
      </root>
    </mxGraphModel>
  </diagram>
</mxfile>
